<mxfile host="app.diagrams.net" modified="2023-10-09T10:14:04.350Z" agent="Mozilla/5.0 (Windows NT 10.0; Win64; x64) AppleWebKit/537.36 (KHTML, like Gecko) Chrome/117.0.0.0 Safari/537.36" etag="1vRQUejgetWe2ZZIiZKl" version="22.0.4" type="device">
  <diagram name="Page-1" id="55a83fd1-7818-8e21-69c5-c3457e3827bb">
    <mxGraphModel dx="1750" dy="1122" grid="1" gridSize="10" guides="1" tooltips="1" connect="1" arrows="1" fold="1" page="1" pageScale="1" pageWidth="1100" pageHeight="850" background="none" math="0" shadow="0">
      <root>
        <mxCell id="0" />
        <mxCell id="1" parent="0" />
        <mxCell id="Hxq2TL6vqvPPPZUKsmFk-40" value="" style="rounded=1;whiteSpace=wrap;html=1;" vertex="1" parent="1">
          <mxGeometry x="910" y="75" width="300" height="700" as="geometry" />
        </mxCell>
        <mxCell id="Hxq2TL6vqvPPPZUKsmFk-27" value="" style="rounded=1;whiteSpace=wrap;html=1;" vertex="1" parent="1">
          <mxGeometry y="365" width="120" height="120" as="geometry" />
        </mxCell>
        <mxCell id="Hxq2TL6vqvPPPZUKsmFk-8" value="" style="fontColor=#0066CC;verticalAlign=top;verticalLabelPosition=bottom;labelPosition=center;align=center;html=1;outlineConnect=0;fillColor=#CCCCCC;strokeColor=#6881B3;gradientColor=none;gradientDirection=north;strokeWidth=2;shape=mxgraph.networks.server;" vertex="1" parent="1">
          <mxGeometry x="950" y="200" width="90" height="100" as="geometry" />
        </mxCell>
        <mxCell id="Hxq2TL6vqvPPPZUKsmFk-10" value="" style="fontColor=#0066CC;verticalAlign=top;verticalLabelPosition=bottom;labelPosition=center;align=center;html=1;outlineConnect=0;fillColor=#CCCCCC;strokeColor=#6881B3;gradientColor=none;gradientDirection=north;strokeWidth=2;shape=mxgraph.networks.server;" vertex="1" parent="1">
          <mxGeometry x="1080" y="200" width="90" height="100" as="geometry" />
        </mxCell>
        <mxCell id="Hxq2TL6vqvPPPZUKsmFk-14" value="" style="fontColor=#0066CC;verticalAlign=top;verticalLabelPosition=bottom;labelPosition=center;align=center;html=1;outlineConnect=0;fillColor=#CCCCCC;strokeColor=#6881B3;gradientColor=none;gradientDirection=north;strokeWidth=2;shape=mxgraph.networks.pc;" vertex="1" parent="1">
          <mxGeometry x="945" y="579" width="100" height="70" as="geometry" />
        </mxCell>
        <mxCell id="Hxq2TL6vqvPPPZUKsmFk-15" value="" style="fontColor=#0066CC;verticalAlign=top;verticalLabelPosition=bottom;labelPosition=center;align=center;html=1;outlineConnect=0;fillColor=#CCCCCC;strokeColor=#6881B3;gradientColor=none;gradientDirection=north;strokeWidth=2;shape=mxgraph.networks.pc;" vertex="1" parent="1">
          <mxGeometry x="1075" y="669" width="100" height="70" as="geometry" />
        </mxCell>
        <mxCell id="Hxq2TL6vqvPPPZUKsmFk-16" value="" style="fontColor=#0066CC;verticalAlign=top;verticalLabelPosition=bottom;labelPosition=center;align=center;html=1;outlineConnect=0;fillColor=#CCCCCC;strokeColor=#6881B3;gradientColor=none;gradientDirection=north;strokeWidth=2;shape=mxgraph.networks.pc;" vertex="1" parent="1">
          <mxGeometry x="1075" y="579" width="100" height="70" as="geometry" />
        </mxCell>
        <mxCell id="Hxq2TL6vqvPPPZUKsmFk-17" value="" style="fontColor=#0066CC;verticalAlign=top;verticalLabelPosition=bottom;labelPosition=center;align=center;html=1;outlineConnect=0;fillColor=#CCCCCC;strokeColor=#6881B3;gradientColor=none;gradientDirection=north;strokeWidth=2;shape=mxgraph.networks.pc;" vertex="1" parent="1">
          <mxGeometry x="1075" y="491.5" width="100" height="70" as="geometry" />
        </mxCell>
        <mxCell id="Hxq2TL6vqvPPPZUKsmFk-18" value="" style="fontColor=#0066CC;verticalAlign=top;verticalLabelPosition=bottom;labelPosition=center;align=center;html=1;outlineConnect=0;fillColor=#CCCCCC;strokeColor=#6881B3;gradientColor=none;gradientDirection=north;strokeWidth=2;shape=mxgraph.networks.laptop;" vertex="1" parent="1">
          <mxGeometry x="945" y="499" width="100" height="55" as="geometry" />
        </mxCell>
        <mxCell id="Hxq2TL6vqvPPPZUKsmFk-19" value="" style="fontColor=#0066CC;verticalAlign=top;verticalLabelPosition=bottom;labelPosition=center;align=center;html=1;outlineConnect=0;fillColor=#CCCCCC;strokeColor=#6881B3;gradientColor=none;gradientDirection=north;strokeWidth=2;shape=mxgraph.networks.tablet;" vertex="1" parent="1">
          <mxGeometry x="945" y="669" width="100" height="70" as="geometry" />
        </mxCell>
        <mxCell id="Hxq2TL6vqvPPPZUKsmFk-22" value="" style="fontColor=#0066CC;verticalAlign=top;verticalLabelPosition=bottom;labelPosition=center;align=center;html=1;outlineConnect=0;fillColor=#CCCCCC;strokeColor=#6881B3;gradientColor=none;gradientDirection=north;strokeWidth=2;shape=mxgraph.networks.firewall;" vertex="1" parent="1">
          <mxGeometry x="220" y="375" width="100" height="100" as="geometry" />
        </mxCell>
        <mxCell id="Hxq2TL6vqvPPPZUKsmFk-23" value="" style="html=1;outlineConnect=0;fillColor=#CCCCCC;strokeColor=#6881B3;gradientColor=none;gradientDirection=north;strokeWidth=2;shape=mxgraph.networks.cloud;fontColor=#ffffff;" vertex="1" parent="1">
          <mxGeometry x="15" y="400" width="90" height="50" as="geometry" />
        </mxCell>
        <mxCell id="Hxq2TL6vqvPPPZUKsmFk-25" value="" style="fontColor=#0066CC;verticalAlign=top;verticalLabelPosition=bottom;labelPosition=center;align=center;html=1;outlineConnect=0;fillColor=#CCCCCC;strokeColor=#6881B3;gradientColor=none;gradientDirection=north;strokeWidth=2;shape=mxgraph.networks.firewall;" vertex="1" parent="1">
          <mxGeometry x="710" y="375" width="100" height="100" as="geometry" />
        </mxCell>
        <mxCell id="Hxq2TL6vqvPPPZUKsmFk-29" value="" style="endArrow=none;html=1;rounded=0;entryX=0;entryY=0.5;entryDx=0;entryDy=0;entryPerimeter=0;exitX=1;exitY=0.5;exitDx=0;exitDy=0;" edge="1" parent="1" source="Hxq2TL6vqvPPPZUKsmFk-27" target="Hxq2TL6vqvPPPZUKsmFk-22">
          <mxGeometry width="50" height="50" relative="1" as="geometry">
            <mxPoint x="120" y="470" as="sourcePoint" />
            <mxPoint x="170" y="420" as="targetPoint" />
          </mxGeometry>
        </mxCell>
        <mxCell id="Hxq2TL6vqvPPPZUKsmFk-30" value="" style="endArrow=none;html=1;rounded=0;exitX=1;exitY=0.5;exitDx=0;exitDy=0;exitPerimeter=0;entryX=-0.004;entryY=0.584;entryDx=0;entryDy=0;entryPerimeter=0;" edge="1" parent="1" source="Hxq2TL6vqvPPPZUKsmFk-22" target="Hxq2TL6vqvPPPZUKsmFk-26">
          <mxGeometry width="50" height="50" relative="1" as="geometry">
            <mxPoint x="600" y="440" as="sourcePoint" />
            <mxPoint x="650" y="390" as="targetPoint" />
          </mxGeometry>
        </mxCell>
        <mxCell id="Hxq2TL6vqvPPPZUKsmFk-37" value="" style="endArrow=none;html=1;rounded=0;entryX=1.007;entryY=0.587;entryDx=0;entryDy=0;exitX=0;exitY=0.5;exitDx=0;exitDy=0;exitPerimeter=0;entryPerimeter=0;" edge="1" parent="1" source="Hxq2TL6vqvPPPZUKsmFk-25" target="Hxq2TL6vqvPPPZUKsmFk-26">
          <mxGeometry width="50" height="50" relative="1" as="geometry">
            <mxPoint x="800" y="440" as="sourcePoint" />
            <mxPoint x="850" y="390" as="targetPoint" />
          </mxGeometry>
        </mxCell>
        <mxCell id="Hxq2TL6vqvPPPZUKsmFk-41" value="" style="endArrow=none;html=1;rounded=0;exitX=1;exitY=0.5;exitDx=0;exitDy=0;exitPerimeter=0;entryX=0;entryY=0.5;entryDx=0;entryDy=0;" edge="1" parent="1" source="Hxq2TL6vqvPPPZUKsmFk-25" target="Hxq2TL6vqvPPPZUKsmFk-40">
          <mxGeometry width="50" height="50" relative="1" as="geometry">
            <mxPoint x="840" y="440" as="sourcePoint" />
            <mxPoint x="890" y="390" as="targetPoint" />
          </mxGeometry>
        </mxCell>
        <mxCell id="Hxq2TL6vqvPPPZUKsmFk-43" value="&lt;h1&gt;&lt;font face=&quot;Verdana&quot; style=&quot;font-size: 26px;&quot;&gt;Domain&lt;/font&gt;&lt;/h1&gt;" style="text;html=1;strokeColor=none;fillColor=none;align=center;verticalAlign=middle;whiteSpace=wrap;rounded=0;" vertex="1" parent="1">
          <mxGeometry x="1030" y="120" width="60" height="30" as="geometry" />
        </mxCell>
        <mxCell id="Hxq2TL6vqvPPPZUKsmFk-44" value="" style="group" vertex="1" connectable="0" parent="1">
          <mxGeometry x="420" y="170" width="190" height="435" as="geometry" />
        </mxCell>
        <mxCell id="Hxq2TL6vqvPPPZUKsmFk-26" value="" style="rounded=1;whiteSpace=wrap;html=1;" vertex="1" parent="Hxq2TL6vqvPPPZUKsmFk-44">
          <mxGeometry width="190" height="435" as="geometry" />
        </mxCell>
        <mxCell id="Hxq2TL6vqvPPPZUKsmFk-6" value="" style="fontColor=#0066CC;verticalAlign=top;verticalLabelPosition=bottom;labelPosition=center;align=center;html=1;outlineConnect=0;fillColor=#CCCCCC;strokeColor=#6881B3;gradientColor=none;gradientDirection=north;strokeWidth=2;shape=mxgraph.networks.web_server;" vertex="1" parent="Hxq2TL6vqvPPPZUKsmFk-44">
          <mxGeometry x="50" y="125" width="105" height="105" as="geometry" />
        </mxCell>
        <mxCell id="Hxq2TL6vqvPPPZUKsmFk-24" value="" style="fontColor=#0066CC;verticalAlign=top;verticalLabelPosition=bottom;labelPosition=center;align=center;html=1;outlineConnect=0;fillColor=#CCCCCC;strokeColor=#6881B3;gradientColor=none;gradientDirection=north;strokeWidth=2;shape=mxgraph.networks.mail_server;" vertex="1" parent="Hxq2TL6vqvPPPZUKsmFk-44">
          <mxGeometry x="50" y="280" width="105" height="105" as="geometry" />
        </mxCell>
        <mxCell id="Hxq2TL6vqvPPPZUKsmFk-38" value="&lt;h1&gt;&lt;font face=&quot;Verdana&quot; style=&quot;font-size: 26px;&quot;&gt;DMZ&lt;/font&gt;&lt;/h1&gt;" style="text;html=1;strokeColor=none;fillColor=none;align=center;verticalAlign=middle;whiteSpace=wrap;rounded=0;" vertex="1" parent="Hxq2TL6vqvPPPZUKsmFk-44">
          <mxGeometry x="65" y="50" width="60" height="30" as="geometry" />
        </mxCell>
        <mxCell id="Hxq2TL6vqvPPPZUKsmFk-45" value="&lt;h4&gt;&lt;font face=&quot;Verdana&quot; style=&quot;font-size: 26px;&quot;&gt;DC&lt;/font&gt;&lt;/h4&gt;" style="text;html=1;strokeColor=none;fillColor=none;align=center;verticalAlign=middle;whiteSpace=wrap;rounded=0;" vertex="1" parent="1">
          <mxGeometry x="965" y="310" width="60" height="30" as="geometry" />
        </mxCell>
        <mxCell id="Hxq2TL6vqvPPPZUKsmFk-46" value="&lt;h4&gt;&lt;font face=&quot;Verdana&quot; style=&quot;font-size: 26px;&quot;&gt;DC&lt;/font&gt;&lt;/h4&gt;" style="text;html=1;strokeColor=none;fillColor=none;align=center;verticalAlign=middle;whiteSpace=wrap;rounded=0;" vertex="1" parent="1">
          <mxGeometry x="1095" y="310" width="60" height="30" as="geometry" />
        </mxCell>
        <mxCell id="Hxq2TL6vqvPPPZUKsmFk-47" value="&lt;h4&gt;&lt;font face=&quot;Verdana&quot;&gt;&lt;span style=&quot;font-size: 26px;&quot;&gt;Clients&lt;/span&gt;&lt;/font&gt;&lt;/h4&gt;" style="text;html=1;strokeColor=none;fillColor=none;align=center;verticalAlign=middle;whiteSpace=wrap;rounded=0;" vertex="1" parent="1">
          <mxGeometry x="1030" y="430" width="60" height="30" as="geometry" />
        </mxCell>
      </root>
    </mxGraphModel>
  </diagram>
</mxfile>
